<svg width="0" height="0" class="hidden">
  <symbol fill="none" xmlns="http://www.w3.org/2000/svg" viewBox="0 0 25 7" id="Arrow 2">
    <path d="M0 3.5L5 6.38675V0.613249L0 3.5ZM25 3L4.5 3V4L25 4V3Z" fill="#959595"></path>
  </symbol>
  <symbol xmlns="http://www.w3.org/2000/svg" viewBox="0 0 8 8" id="star">
    <path fill-rule="evenodd" clip-rule="evenodd" d="M3.77736 6.99133L2.04611 7.94248C1.81226 8.07095 1.52302 7.977 1.40008 7.73262C1.35112 7.63531 1.33423 7.52385 1.35201 7.41549L1.68265 5.40094C1.70927 5.23877 1.65782 5.0733 1.54508 4.95846L0.144463 3.53175C-0.0447254 3.33903 -0.0485965 3.02253 0.135817 2.82483C0.209251 2.7461 0.305473 2.69487 0.409584 2.67906L2.34518 2.38514C2.50099 2.36148 2.63569 2.25922 2.70537 2.11167L3.57099 0.278776C3.68792 0.0311959 3.97476 -0.0704543 4.21168 0.0517337C4.30602 0.10039 4.38238 0.180188 4.42894 0.278776L5.29457 2.11167C5.36425 2.25922 5.49894 2.36148 5.65476 2.38514L7.59035 2.67906C7.85181 2.71876 8.03296 2.97243 7.99497 3.24566C7.97984 3.35445 7.93081 3.45501 7.85547 3.53175L6.45486 4.95846C6.34212 5.0733 6.29067 5.23877 6.31728 5.40094L6.64792 7.41549C6.69258 7.6876 6.5177 7.94603 6.2573 7.9927C6.15361 8.01129 6.04695 7.99364 5.95383 7.94248L4.22258 6.99133C4.08321 6.91477 3.91672 6.91477 3.77736 6.99133ZM3.39212 6.29018C3.77138 6.08182 4.2285 6.08182 4.60776 6.29018L5.75604 6.92104L5.52782 5.5305C5.46014 5.11818 5.59141 4.69601 5.88395 4.39801L6.8826 3.38076L5.53462 3.17607C5.11267 3.112 4.75343 2.83925 4.57116 2.4533L3.99994 1.2438L3.42873 2.4533C3.24646 2.83925 2.88721 3.112 2.46526 3.17607L1.11729 3.38076L2.11593 4.39801C2.40847 4.69601 2.53974 5.11818 2.47206 5.5305L2.24384 6.92104L3.39212 6.29018Z" fill="black"></path>
  </symbol>
  <symbol fill="none" xmlns="http://www.w3.org/2000/svg" viewBox="0 0 75 26" id="Logo">
    <g filter="url(#filter0_d_2001_203)">
      <mask id="path-1-outside-1_2001_203" maskUnits="userSpaceOnUse" x="3" y="-0.5" width="69" height="20" fill="black">
        <rect fill="white" x="3" y="-0.5" width="69" height="20"></rect>
        <path d="M4.38719 17.5V0.699999H6.78719V17.5H4.38719ZM17.4009 17.692C16.1049 17.692 14.9129 17.484 13.8249 17.068C12.7369 16.636 11.7929 16.036 10.9929 15.268C10.1929 14.484 9.56888 13.572 9.12088 12.532C8.67288 11.492 8.44888 10.348 8.44888 9.1C8.44888 7.852 8.67288 6.708 9.12088 5.668C9.56888 4.628 10.1929 3.724 10.9929 2.956C11.8089 2.172 12.7609 1.572 13.8489 1.156C14.9369 0.724 16.1369 0.508 17.4489 0.508C18.7769 0.508 19.9929 0.724 21.0969 1.156C22.2009 1.588 23.1369 2.236 23.9049 3.1L22.4169 4.588C21.7289 3.916 20.9769 3.428 20.1609 3.124C19.3609 2.804 18.4889 2.644 17.5449 2.644C16.5849 2.644 15.6889 2.804 14.8569 3.124C14.0409 3.444 13.3289 3.892 12.7209 4.468C12.1289 5.044 11.6649 5.732 11.3289 6.532C11.0089 7.316 10.8489 8.172 10.8489 9.1C10.8489 10.012 11.0089 10.868 11.3289 11.668C11.6649 12.452 12.1289 13.14 12.7209 13.732C13.3289 14.308 14.0409 14.756 14.8569 15.076C15.6729 15.396 16.5609 15.556 17.5209 15.556C18.4169 15.556 19.2729 15.42 20.0889 15.148C20.9209 14.86 21.6889 14.388 22.3929 13.732L23.7609 15.556C22.9289 16.26 21.9529 16.796 20.8329 17.164C19.7289 17.516 18.5849 17.692 17.4009 17.692ZM21.4569 15.244V9.004H23.7609V15.556L21.4569 15.244ZM26.3559 17.5V0.699999H28.3239L39.4359 14.5H38.4039V0.699999H40.8039V17.5H38.8359L27.7239 3.7H28.7559V17.5H26.3559ZM41.2885 17.5L48.8965 0.699999H51.2725L58.9045 17.5H56.3845L49.5925 2.044H50.5525L43.7605 17.5H41.2885ZM44.5285 13.3L45.1765 11.38H54.6325L55.3285 13.3H44.5285ZM61.9029 17.5V2.788H56.1429V0.699999H70.0389V2.788H64.2789V17.5H61.9029Z"></path>
      </mask>
      <path d="M4.38719 17.5V0.699999H6.78719V17.5H4.38719ZM17.4009 17.692C16.1049 17.692 14.9129 17.484 13.8249 17.068C12.7369 16.636 11.7929 16.036 10.9929 15.268C10.1929 14.484 9.56888 13.572 9.12088 12.532C8.67288 11.492 8.44888 10.348 8.44888 9.1C8.44888 7.852 8.67288 6.708 9.12088 5.668C9.56888 4.628 10.1929 3.724 10.9929 2.956C11.8089 2.172 12.7609 1.572 13.8489 1.156C14.9369 0.724 16.1369 0.508 17.4489 0.508C18.7769 0.508 19.9929 0.724 21.0969 1.156C22.2009 1.588 23.1369 2.236 23.9049 3.1L22.4169 4.588C21.7289 3.916 20.9769 3.428 20.1609 3.124C19.3609 2.804 18.4889 2.644 17.5449 2.644C16.5849 2.644 15.6889 2.804 14.8569 3.124C14.0409 3.444 13.3289 3.892 12.7209 4.468C12.1289 5.044 11.6649 5.732 11.3289 6.532C11.0089 7.316 10.8489 8.172 10.8489 9.1C10.8489 10.012 11.0089 10.868 11.3289 11.668C11.6649 12.452 12.1289 13.14 12.7209 13.732C13.3289 14.308 14.0409 14.756 14.8569 15.076C15.6729 15.396 16.5609 15.556 17.5209 15.556C18.4169 15.556 19.2729 15.42 20.0889 15.148C20.9209 14.86 21.6889 14.388 22.3929 13.732L23.7609 15.556C22.9289 16.26 21.9529 16.796 20.8329 17.164C19.7289 17.516 18.5849 17.692 17.4009 17.692ZM21.4569 15.244V9.004H23.7609V15.556L21.4569 15.244ZM26.3559 17.5V0.699999H28.3239L39.4359 14.5H38.4039V0.699999H40.8039V17.5H38.8359L27.7239 3.7H28.7559V17.5H26.3559ZM41.2885 17.5L48.8965 0.699999H51.2725L58.9045 17.5H56.3845L49.5925 2.044H50.5525L43.7605 17.5H41.2885ZM44.5285 13.3L45.1765 11.38H54.6325L55.3285 13.3H44.5285ZM61.9029 17.5V2.788H56.1429V0.699999H70.0389V2.788H64.2789V17.5H61.9029Z" fill="#343434"></path>
      <path d="M4.38719 17.5H3.38719V18.5H4.38719V17.5ZM4.38719 0.699999V-0.300001H3.38719V0.699999H4.38719ZM6.78719 0.699999H7.78719V-0.300001H6.78719V0.699999ZM6.78719 17.5V18.5H7.78719V17.5H6.78719ZM5.38719 17.5V0.699999H3.38719V17.5H5.38719ZM4.38719 1.7H6.78719V-0.300001H4.38719V1.7ZM5.78719 0.699999V17.5H7.78719V0.699999H5.78719ZM6.78719 16.5H4.38719V18.5H6.78719V16.5ZM13.8249 17.068L13.4558 17.9975L13.4677 18.0021L13.8249 17.068ZM10.9929 15.268L10.2929 15.9823L10.3003 15.9894L10.9929 15.268ZM9.12088 12.532L10.0393 12.1364L10.0393 12.1364L9.12088 12.532ZM9.12088 5.668L10.0393 6.06362L10.0393 6.06362L9.12088 5.668ZM10.9929 2.956L11.6854 3.67739L11.6857 3.6771L10.9929 2.956ZM13.8489 1.156L14.206 2.09013L14.2179 2.08542L13.8489 1.156ZM21.0969 1.156L21.4613 0.224756L21.4613 0.224756L21.0969 1.156ZM23.9049 3.1L24.612 3.80711L25.2787 3.14037L24.6523 2.43564L23.9049 3.1ZM22.4169 4.588L21.7181 5.30338L22.4251 5.99394L23.124 5.29511L22.4169 4.588ZM20.1609 3.124L19.7895 4.05248L19.8006 4.05691L19.8118 4.06108L20.1609 3.124ZM14.8569 3.124L14.4979 2.19063L14.4918 2.19303L14.8569 3.124ZM12.7209 4.468L12.0331 3.74198L12.0235 3.75127L12.7209 4.468ZM11.3289 6.532L10.4068 6.14475L10.403 6.1541L11.3289 6.532ZM11.3289 11.668L10.4004 12.0394L10.4049 12.0507L10.4097 12.0619L11.3289 11.668ZM12.7209 13.732L12.0138 14.4391L12.0233 14.4487L12.0331 14.458L12.7209 13.732ZM14.8569 15.076L15.222 14.145L15.222 14.145L14.8569 15.076ZM20.0889 15.148L20.4051 16.0967L20.416 16.093L20.0889 15.148ZM22.3929 13.732L23.1929 13.132L22.5252 12.2418L21.7111 13.0004L22.3929 13.732ZM23.7609 15.556L24.4068 16.3194L25.1266 15.7103L24.5609 14.956L23.7609 15.556ZM20.8329 17.164L21.1367 18.1168L21.145 18.114L20.8329 17.164ZM21.4569 15.244H20.4569V16.1177L21.3227 16.235L21.4569 15.244ZM21.4569 9.004V8.004H20.4569V9.004H21.4569ZM23.7609 9.004H24.7609V8.004H23.7609V9.004ZM23.7609 15.556L23.6267 16.547L24.7609 16.7005V15.556H23.7609ZM17.4009 16.692C16.2132 16.692 15.1439 16.5017 14.182 16.1339L13.4677 18.0021C14.6819 18.4663 15.9965 18.692 17.4009 18.692V16.692ZM14.1939 16.1386C13.2194 15.7516 12.3869 15.2201 11.6854 14.5466L10.3003 15.9894C11.1988 16.8519 12.2543 17.5204 13.4558 17.9974L14.1939 16.1386ZM11.6928 14.5538C10.9867 13.8618 10.4364 13.0583 10.0393 12.1364L8.20246 12.9276C8.70131 14.0857 9.39907 15.1062 10.2929 15.9822L11.6928 14.5538ZM10.0393 12.1364C9.65038 11.2335 9.44888 10.2259 9.44888 9.1H7.44888C7.44888 10.4701 7.69537 11.7505 8.20246 12.9276L10.0393 12.1364ZM9.44888 9.1C9.44888 7.97408 9.65038 6.96645 10.0393 6.06362L8.20246 5.27238C7.69537 6.44955 7.44888 7.72991 7.44888 9.1H9.44888ZM10.0393 6.06362C10.4356 5.14354 10.9837 4.35098 11.6854 3.67739L10.3003 2.23461C9.402 3.09702 8.70212 4.11246 8.20246 5.27238L10.0393 6.06362ZM11.6857 3.6771C12.4023 2.98858 13.2393 2.45968 14.206 2.09005L13.4917 0.221947C12.2825 0.684313 11.2154 1.35542 10.3 2.2349L11.6857 3.6771ZM14.2179 2.08542C15.1751 1.70535 16.248 1.508 17.4489 1.508V-0.492C16.0257 -0.492 14.6986 -0.257351 13.4798 0.226582L14.2179 2.08542ZM17.4489 1.508C18.6671 1.508 19.7577 1.70582 20.7325 2.08724L21.4613 0.224756C20.228 -0.257819 18.8866 -0.492 17.4489 -0.492V1.508ZM20.7325 2.08724C21.6934 2.46327 22.497 3.02138 23.1575 3.76436L24.6523 2.43564C23.7767 1.45062 22.7083 0.712732 21.4613 0.224756L20.7325 2.08724ZM23.1978 2.39289L21.7098 3.88089L23.124 5.29511L24.612 3.80711L23.1978 2.39289ZM23.1156 3.87262C22.3383 3.11339 21.4698 2.54449 20.51 2.18692L19.8118 4.06108C20.484 4.31151 21.1194 4.71861 21.7181 5.30338L23.1156 3.87262ZM20.5323 2.19552C19.6033 1.82395 18.6039 1.644 17.5449 1.644V3.644C18.3739 3.644 19.1184 3.78405 19.7895 4.05248L20.5323 2.19552ZM17.5449 1.644C16.4716 1.644 15.453 1.82331 14.4979 2.19065L15.2159 4.05734C15.9248 3.78469 16.6981 3.644 17.5449 3.644V1.644ZM14.4918 2.19303C13.5617 2.55776 12.7388 3.0735 12.0331 3.74205L13.4086 5.19395C13.9189 4.7105 14.52 4.33024 15.222 4.05497L14.4918 2.19303ZM12.0235 3.75127C11.3305 4.42561 10.7922 5.22733 10.4069 6.14477L12.2509 6.91923C12.5375 6.23667 12.9273 5.66239 13.4182 5.18472L12.0235 3.75127ZM10.403 6.1541C10.0296 7.06911 9.84888 8.0549 9.84888 9.1H11.8489C11.8489 8.2891 11.9882 7.56289 12.2547 6.9099L10.403 6.1541ZM9.84888 9.1C9.84888 10.1317 10.0304 11.1145 10.4004 12.0394L12.2574 11.2966C11.9873 10.6215 11.8489 9.89231 11.8489 9.1H9.84888ZM10.4097 12.0619C10.7949 12.9606 11.3301 13.7554 12.0138 14.4391L13.428 13.0249C12.9277 12.5246 12.5349 11.9434 12.248 11.2741L10.4097 12.0619ZM12.0331 14.458C12.7388 15.1265 13.5617 15.6422 14.4918 16.007L15.222 14.145C14.52 13.8698 13.9189 13.4895 13.4086 13.006L12.0331 14.458ZM14.4918 16.007C15.4347 16.3767 16.4479 16.556 17.5209 16.556V14.556C16.6739 14.556 15.911 14.4153 15.222 14.145L14.4918 16.007ZM17.5209 16.556C18.5198 16.556 19.4829 16.4041 20.4051 16.0967L19.7726 14.1993C19.0628 14.4359 18.3139 14.556 17.5209 14.556V16.556ZM20.416 16.093C21.3916 15.7553 22.2781 15.2058 23.0746 14.4636L21.7111 13.0004C21.0996 13.5702 20.4501 13.9647 19.7618 14.203L20.416 16.093ZM21.5929 14.332L22.9609 16.156L24.5609 14.956L23.1929 13.132L21.5929 14.332ZM23.1149 14.7926C22.3889 15.4069 21.5285 15.8828 20.5207 16.214L21.145 18.114C22.3772 17.7092 23.4688 17.1131 24.4068 16.3194L23.1149 14.7926ZM20.5291 16.2113C19.5255 16.5313 18.4841 16.692 17.4009 16.692V18.692C18.6857 18.692 19.9323 18.5007 21.1366 18.1167L20.5291 16.2113ZM22.4569 15.244V9.004H20.4569V15.244H22.4569ZM21.4569 10.004H23.7609V8.004H21.4569V10.004ZM22.7609 9.004V15.556H24.7609V9.004H22.7609ZM23.8951 14.565L21.5911 14.253L21.3227 16.235L23.6267 16.547L23.8951 14.565ZM26.3559 17.5H25.3559V18.5H26.3559V17.5ZM26.3559 0.699999V-0.300001H25.3559V0.699999H26.3559ZM28.3239 0.699999L29.1028 0.0728291L28.8026 -0.300001H28.3239V0.699999ZM39.4359 14.5V15.5H41.525L40.2148 13.8728L39.4359 14.5ZM38.4039 14.5H37.4039V15.5H38.4039V14.5ZM38.4039 0.699999V-0.300001H37.4039V0.699999H38.4039ZM40.8039 0.699999H41.8039V-0.300001H40.8039V0.699999ZM40.8039 17.5V18.5H41.8039V17.5H40.8039ZM38.8359 17.5L38.0571 18.1272L38.3573 18.5H38.8359V17.5ZM27.7239 3.7V2.7H25.6348L26.9451 4.32717L27.7239 3.7ZM28.7559 3.7H29.7559V2.7H28.7559V3.7ZM28.7559 17.5V18.5H29.7559V17.5H28.7559ZM27.3559 17.5V0.699999H25.3559V17.5H27.3559ZM26.3559 1.7H28.3239V-0.300001H26.3559V1.7ZM27.5451 1.32717L38.6571 15.1272L40.2148 13.8728L29.1028 0.0728291L27.5451 1.32717ZM39.4359 13.5H38.4039V15.5H39.4359V13.5ZM39.4039 14.5V0.699999H37.4039V14.5H39.4039ZM38.4039 1.7H40.8039V-0.300001H38.4039V1.7ZM39.8039 0.699999V17.5H41.8039V0.699999H39.8039ZM40.8039 16.5H38.8359V18.5H40.8039V16.5ZM39.6148 16.8728L28.5028 3.07283L26.9451 4.32717L38.0571 18.1272L39.6148 16.8728ZM27.7239 4.7H28.7559V2.7H27.7239V4.7ZM27.7559 3.7V17.5H29.7559V3.7H27.7559ZM28.7559 16.5H26.3559V18.5H28.7559V16.5ZM41.2885 17.5L40.3776 17.0875L39.7379 18.5H41.2885V17.5ZM48.8965 0.699999V-0.300001H48.2516L47.9856 0.287471L48.8965 0.699999ZM51.2725 0.699999L52.183 0.286392L51.9166 -0.300001H51.2725V0.699999ZM58.9045 17.5V18.5H60.4571L59.815 17.0864L58.9045 17.5ZM56.3845 17.5L55.469 17.9023L55.7316 18.5H56.3845V17.5ZM49.5925 2.044V1.044H48.0608L48.677 2.44631L49.5925 2.044ZM50.5525 2.044L51.468 2.44631L52.0842 1.044H50.5525V2.044ZM43.7605 17.5V18.5H44.4134L44.676 17.9023L43.7605 17.5ZM44.5285 13.3L43.581 12.9802L43.1356 14.3H44.5285V13.3ZM45.1765 11.38V10.38H44.4586L44.229 11.0602L45.1765 11.38ZM54.6325 11.38L55.5726 11.0392L55.3337 10.38H54.6325V11.38ZM55.3285 13.3V14.3H56.7547L56.2686 12.9592L55.3285 13.3ZM42.1994 17.9125L49.8074 1.11253L47.9856 0.287471L40.3776 17.0875L42.1994 17.9125ZM48.8965 1.7H51.2725V-0.300001H48.8965V1.7ZM50.362 1.11361L57.994 17.9136L59.815 17.0864L52.183 0.286392L50.362 1.11361ZM58.9045 16.5H56.3845V18.5H58.9045V16.5ZM57.3 17.0977L50.508 1.64169L48.677 2.44631L55.469 17.9023L57.3 17.0977ZM49.5925 3.044H50.5525V1.044H49.5925V3.044ZM49.637 1.64169L42.845 17.0977L44.676 17.9023L51.468 2.44631L49.637 1.64169ZM43.7605 16.5H41.2885V18.5H43.7605V16.5ZM45.476 13.6198L46.124 11.6998L44.229 11.0602L43.581 12.9802L45.476 13.6198ZM45.1765 12.38H54.6325V10.38H45.1765V12.38ZM53.6924 11.7208L54.3884 13.6408L56.2686 12.9592L55.5726 11.0392L53.6924 11.7208ZM55.3285 12.3H44.5285V14.3H55.3285V12.3ZM61.9029 17.5H60.9029V18.5H61.9029V17.5ZM61.9029 2.788H62.9029V1.788H61.9029V2.788ZM56.1429 2.788H55.1429V3.788H56.1429V2.788ZM56.1429 0.699999V-0.300001H55.1429V0.699999H56.1429ZM70.0389 0.699999H71.0389V-0.300001H70.0389V0.699999ZM70.0389 2.788V3.788H71.0389V2.788H70.0389ZM64.2789 2.788V1.788H63.2789V2.788H64.2789ZM64.2789 17.5V18.5H65.2789V17.5H64.2789ZM62.9029 17.5V2.788H60.9029V17.5H62.9029ZM61.9029 1.788H56.1429V3.788H61.9029V1.788ZM57.1429 2.788V0.699999H55.1429V2.788H57.1429ZM56.1429 1.7H70.0389V-0.300001H56.1429V1.7ZM69.0389 0.699999V2.788H71.0389V0.699999H69.0389ZM70.0389 1.788H64.2789V3.788H70.0389V1.788ZM63.2789 2.788V17.5H65.2789V2.788H63.2789ZM64.2789 16.5H61.9029V18.5H64.2789V16.5Z" fill="black" mask="url(#path-1-outside-1_2001_203)"></path>
    </g>
    <defs>
      <filter id="filter0_d_2001_203" x="0.387207" y="0.507996" width="73.6519" height="25.184" filterUnits="userSpaceOnUse" color-interpolation-filters="sRGB">
        <feFlood flood-opacity="0" result="BackgroundImageFix"></feFlood>
        <feColorMatrix in="SourceAlpha" type="matrix" values="0 0 0 0 0 0 0 0 0 0 0 0 0 0 0 0 0 0 127 0" result="hardAlpha"></feColorMatrix>
        <feOffset dy="4"></feOffset>
        <feGaussianBlur stdDeviation="2"></feGaussianBlur>
        <feComposite in2="hardAlpha" operator="out"></feComposite>
        <feColorMatrix type="matrix" values="0 0 0 0 0 0 0 0 0 0 0 0 0 0 0 0 0 0 0.25 0"></feColorMatrix>
        <feBlend mode="normal" in2="BackgroundImageFix" result="effect1_dropShadow_2001_203"></feBlend>
        <feBlend mode="normal" in="SourceGraphic" in2="effect1_dropShadow_2001_203" result="shape"></feBlend>
      </filter>
    </defs>
  </symbol>
  <symbol fill="none" xmlns="http://www.w3.org/2000/svg" viewBox="0 0 8 8" id="starblack">
    <path fill-rule="evenodd" clip-rule="evenodd" d="M3.77736 6.99133L2.04611 7.94248C1.81226 8.07095 1.52302 7.977 1.40008 7.73262C1.35112 7.63531 1.33423 7.52385 1.35201 7.41549L1.68265 5.40094C1.70927 5.23877 1.65782 5.0733 1.54508 4.95846L0.144463 3.53175C-0.0447254 3.33903 -0.0485965 3.02253 0.135817 2.82483C0.209251 2.7461 0.305473 2.69487 0.409584 2.67906L2.34518 2.38514C2.50099 2.36148 2.63569 2.25922 2.70537 2.11167L3.57099 0.278776C3.68792 0.0311959 3.97476 -0.0704543 4.21168 0.0517337C4.30602 0.10039 4.38238 0.180188 4.42894 0.278776L5.29457 2.11167C5.36425 2.25922 5.49894 2.36148 5.65476 2.38514L7.59035 2.67906C7.85181 2.71876 8.03296 2.97243 7.99497 3.24566C7.97984 3.35445 7.93081 3.45501 7.85547 3.53175L6.45486 4.95846C6.34212 5.0733 6.29067 5.23877 6.31728 5.40094L6.64792 7.41549C6.69258 7.6876 6.5177 7.94603 6.2573 7.9927C6.15361 8.01129 6.04695 7.99364 5.95383 7.94248L4.22258 6.99133C4.08321 6.91477 3.91672 6.91477 3.77736 6.99133Z" fill="black"></path>
  </symbol>
  <symbol fill="none" xmlns="http://www.w3.org/2000/svg" viewBox="0 0 24 24" id="bag">
    <path d="M5.18988 6.38C4.99988 6.38 4.79988 6.3 4.65988 6.16C4.36988 5.87 4.36988 5.39 4.65988 5.1L8.28988 1.47C8.57988 1.18 9.05988 1.18 9.34988 1.47C9.63988 1.76 9.63988 2.24 9.34988 2.53L5.71988 6.16C5.56988 6.3 5.37988 6.38 5.18988 6.38Z" fill="#343434"></path>
    <path d="M18.8101 6.38C18.6201 6.38 18.4301 6.31 18.2801 6.16L14.6501 2.53C14.3601 2.24 14.3601 1.76 14.6501 1.47C14.9401 1.18 15.4201 1.18 15.7101 1.47L19.3401 5.1C19.6301 5.39 19.6301 5.87 19.3401 6.16C19.2001 6.3 19.0001 6.38 18.8101 6.38Z" fill="#343434"></path>
    <path d="M20.21 10.6C20.14 10.6 20.07 10.6 20 10.6H19.77H4C3.3 10.61 2.5 10.61 1.92 10.03C1.46 9.58001 1.25 8.88001 1.25 7.85001C1.25 5.10001 3.26 5.10001 4.22 5.10001H19.78C20.74 5.10001 22.75 5.10001 22.75 7.85001C22.75 8.89001 22.54 9.58001 22.08 10.03C21.56 10.55 20.86 10.6 20.21 10.6ZM4.22 9.10001H20.01C20.46 9.11001 20.88 9.11001 21.02 8.97001C21.09 8.90001 21.24 8.66001 21.24 7.85001C21.24 6.72001 20.96 6.60001 19.77 6.60001H4.22C3.03 6.60001 2.75 6.72001 2.75 7.85001C2.75 8.66001 2.91 8.90001 2.97 8.97001C3.11 9.10001 3.54 9.10001 3.98 9.10001H4.22Z" fill="#343434"></path>
    <path d="M9.75977 18.3C9.34977 18.3 9.00977 17.96 9.00977 17.55V14C9.00977 13.59 9.34977 13.25 9.75977 13.25C10.1698 13.25 10.5098 13.59 10.5098 14V17.55C10.5098 17.97 10.1698 18.3 9.75977 18.3Z" fill="#343434"></path>
    <path d="M14.3604 18.3C13.9504 18.3 13.6104 17.96 13.6104 17.55V14C13.6104 13.59 13.9504 13.25 14.3604 13.25C14.7704 13.25 15.1104 13.59 15.1104 14V17.55C15.1104 17.97 14.7704 18.3 14.3604 18.3Z" fill="#343434"></path>
    <path d="M14.8898 22.75H8.85975C5.27975 22.75 4.47975 20.62 4.16975 18.77L2.75975 10.12C2.68975 9.71 2.96975 9.33 3.37975 9.26C3.78975 9.19 4.16975 9.47 4.23975 9.88L5.64975 18.52C5.93975 20.29 6.53975 21.25 8.85975 21.25H14.8898C17.4598 21.25 17.7498 20.35 18.0798 18.61L19.7598 9.86C19.8398 9.45 20.2298 9.18 20.6398 9.27C21.0498 9.35 21.3098 9.74 21.2298 10.15L19.5498 18.9C19.1598 20.93 18.5098 22.75 14.8898 22.75Z" fill="#343434"></path>
  </symbol>
  <symbol fill="none" xmlns="http://www.w3.org/2000/svg" viewBox="0 0 24 24" id="chevrons-down">
    <path d="M7 13L12 18L17 13" stroke="#343434" stroke-linecap="round"></path>
    <path d="M7 7L12 12L17 7" stroke="#343434" stroke-linecap="round"></path>
  </symbol>
  <symbol fill="none" xmlns="http://www.w3.org/2000/svg" viewBox="0 0 24 24" id="heart">
    <path d="M12 21.65C11.69 21.65 11.39 21.61 11.14 21.52C7.32 20.21 1.25 15.56 1.25 8.69001C1.25 5.19001 4.08 2.35001 7.56 2.35001C9.25 2.35001 10.83 3.01001 12 4.19001C13.17 3.01001 14.75 2.35001 16.44 2.35001C19.92 2.35001 22.75 5.20001 22.75 8.69001C22.75 15.57 16.68 20.21 12.86 21.52C12.61 21.61 12.31 21.65 12 21.65ZM7.56 3.85001C4.91 3.85001 2.75 6.02001 2.75 8.69001C2.75 15.52 9.32 19.32 11.63 20.11C11.81 20.17 12.2 20.17 12.38 20.11C14.68 19.32 21.26 15.53 21.26 8.69001C21.26 6.02001 19.1 3.85001 16.45 3.85001C14.93 3.85001 13.52 4.56001 12.61 5.79001C12.33 6.17001 11.69 6.17001 11.41 5.79001C10.48 4.55001 9.08 3.85001 7.56 3.85001Z" fill="#343434"></path>
  </symbol>
  <symbol fill="none" xmlns="http://www.w3.org/2000/svg" viewBox="0 0 3 84" id="Line 14">
    <path d="M1.5 2L1.5 82" stroke="black" stroke-width="3" stroke-linecap="round"></path>
  </symbol>
  <symbol fill="none" xmlns="http://www.w3.org/2000/svg" viewBox="0 0 84 3" id="Line 15">
    <path d="M2 1.5H82" stroke="black" stroke-width="3" stroke-linecap="round"></path>
  </symbol>
  <symbol fill="none" xmlns="http://www.w3.org/2000/svg" viewBox="0 0 24 24" id="arrow-down">
    <path d="M18 14L12 8L6 14" stroke="#343434" stroke-linecap="round"></path>
  </symbol>
  <symbol fill="none" xmlns="http://www.w3.org/2000/svg" viewBox="0 0 25 7" id="Arrow 1">
    <path d="M25 3.5L20 0.613249V6.38675L25 3.5ZM0 4L20.5 4V3L0 3L0 4Z" fill="#343434"></path>
  </symbol>
  <symbol fill="none" xmlns="http://www.w3.org/2000/svg" viewBox="0 0 22 22" id="search">
    <path d="M10.25 20.5C4.6 20.5 0 15.9 0 10.25C0 4.6 4.6 0 10.25 0C15.9 0 20.5 4.6 20.5 10.25C20.5 15.9 15.9 20.5 10.25 20.5ZM10.25 1.5C5.42 1.5 1.5 5.43 1.5 10.25C1.5 15.07 5.42 19 10.25 19C15.08 19 19 15.07 19 10.25C19 5.43 15.08 1.5 10.25 1.5Z" fill="#343434"></path>
    <path d="M20.75 21.5C20.56 21.5 20.37 21.43 20.22 21.28L18.22 19.28C17.93 18.99 17.93 18.51 18.22 18.22C18.51 17.93 18.99 17.93 19.28 18.22L21.28 20.22C21.57 20.51 21.57 20.99 21.28 21.28C21.13 21.43 20.94 21.5 20.75 21.5Z" fill="#343434"></path>
  </symbol>
</svg>